# xmcd CD database file
#
# Track frame offsets:
#	150
#	16970
#	35352
#	43947
#	59015
#	77402
#	92915
#	110000
#	127462
#	144620
#	163092
#
# Disc length: 2322 seconds
#
# Revision: 1
# Processed by: cddbd v1.5.2PL0 Copyright (c) Steve Scherf et al.
# Submitted via: CDex 1.70beta2
#
DISCID=9f09100b
DTITLE=Enya - performed by Mary McDowell - The Sound of Enya
DYEAR=2003
DGENRE=New Age
TTITLE0=Orinoco Flow
TTITLE1=Anywhere Is
TTITLE2=Ebudae
TTITLE3=Shepherd Moon
TTITLE4=Storms In Africa
TTITLE5=Evacuee
TTITLE6=Marbie Halls
TTITLE7=One By One
TTITLE8=Anirom (theme from Aragon and Arewn)
TTITLE9=Paint The Sky With Stars
TTITLE10=theme from Harry's Game'
EXTD=YEAR: 2003
EXTT0=
EXTT1=
EXTT2=
EXTT3=
EXTT4=
EXTT5=
EXTT6=
EXTT7=
EXTT8=
EXTT9=
EXTT10=
PLAYORDER=
